<?xml version="1.0" encoding="utf-8"?>
<!-- Generator: Adobe Illustrator 12.0.0, SVG Export Plug-In . SVG Version: 6.00 Build 51448)  -->
<!DOCTYPE svg PUBLIC "-//W3C//DTD SVG 1.1//EN" "http://www.w3.org/Graphics/SVG/1.1/DTD/svg11.dtd" [
	<!ENTITY ns_svg "http://www.w3.org/2000/svg">
	<!ENTITY ns_xlink "http://www.w3.org/1999/xlink">
]>
<svg  version="1.1" id="Layer_1" xmlns="&ns_svg;" xmlns:xlink="&ns_xlink;" width="115.276" height="65.279"
	 viewBox="0 0 115.276 65.279" overflow="visible" enable-background="new 0 0 115.276 65.279" xml:space="preserve">
<g>
	<defs>
		<rect id="XMLID_1_" width="115.276" height="65.279"/>
	</defs>
	<clipPath id="XMLID_3_">
		<use xlink:href="#XMLID_1_" />
	</clipPath>
	<rect x="0.948" y="3.208" clip-path="url(#XMLID_3_)" fill="#0C3983" width="30.541" height="61.498"/>
	<rect x="32.322" y="33.956" clip-path="url(#XMLID_3_)" fill="#0C3983" width="30.54" height="30.75"/>
	<polyline clip-path="url(#XMLID_3_)" fill="#0C3983" points="34.714,0.692 64.791,5.995 59.451,36.276 29.375,30.973 34.714,0.692 
			"/>
	<rect x="32.322" y="33.956" clip-path="url(#XMLID_3_)" fill="#0C3983" width="81.877" height="2.789"/>
	<path clip-path="url(#XMLID_3_)" fill-rule="evenodd" clip-rule="evenodd" fill="#FFFFFF" d="M43.962,12.857h4.896
		c1.633,0,2.521,0.623,2.521,2.351c0,1.538-1.08,2.377-2.521,2.377h-4.896V12.857 M40.962,27.545h7.872
		c4.439,0,6.312-2.089,6.312-4.777c0-2.328-1.128-3.958-3.216-4.415v-0.048c1.561-0.672,2.448-1.92,2.448-3.648
		c0-2.857-2.016-4.249-5.088-4.249h-8.328V27.545z M43.962,19.745h5.304c1.824,0,2.88,0.958,2.88,2.64
		c0,1.727-1.056,2.712-2.88,2.712h-5.304V19.745z"/>
	<polyline clip-path="url(#XMLID_3_)" fill="#0C3983" points="65.014,26.365 74.662,26.365 74.662,25.169 66.415,25.169 
		66.415,11.64 65.014,11.64 65.014,26.365 	"/>
	<path clip-path="url(#XMLID_3_)" fill="#0C3983" d="M82.336,21.065c0,3.031,1.63,5.609,5.713,5.609
		c4.104,0,5.733-2.578,5.733-5.609V11.64h-1.403v9.115c0.021,3.423-1.607,4.722-4.33,4.722c-2.703,0-4.331-1.299-4.31-4.722V11.64
		h-1.403V21.065"/>
	<polyline clip-path="url(#XMLID_3_)" fill="#0C3983" points="103.003,26.365 113.272,26.365 113.272,25.169 104.404,25.169 
		104.404,19.354 112.612,19.354 112.612,18.157 104.404,18.157 104.404,12.836 113.169,12.836 113.169,11.64 103.003,11.64 
		103.003,26.365 	"/>
	<polyline clip-path="url(#XMLID_3_)" fill="#FFFFFF" points="40.794,58.203 43.89,58.203 47.394,45.098 47.441,45.098 
		50.874,58.203 53.922,58.203 58.649,41.067 55.602,41.067 52.41,54.17 52.362,54.17 49.002,41.067 45.93,41.067 42.474,54.17 
		42.426,54.17 39.33,41.067 36.282,41.067 40.794,58.203 	"/>
	<rect x="69.804" y="42.299" clip-path="url(#XMLID_3_)" fill="#0C3983" width="1.402" height="14.724"/>
	<polyline clip-path="url(#XMLID_3_)" fill="#0C3983" points="80.913,57.023 82.316,57.023 82.316,44.568 82.358,44.568 
		90.936,57.023 92.503,57.023 92.503,42.299 91.102,42.299 91.102,54.755 91.06,54.755 82.481,42.299 80.913,42.299 80.913,57.023 	
		"/>
	<path clip-path="url(#XMLID_3_)" fill-rule="evenodd" clip-rule="evenodd" fill="#0C3983" d="M102.101,57.023h5.094
		c4.433-0.104,6.765-2.537,6.765-7.362s-2.332-7.257-6.765-7.361h-5.094V57.023 M103.503,43.496h2.99
		c4.229-0.021,6.063,1.773,6.063,6.165c0,4.394-1.834,6.188-6.063,6.167h-2.99V43.496z"/>
</g>
</svg>
